<mxfile host="app.diagrams.net" modified="2024-05-21T10:58:00.372Z" agent="Mozilla/5.0 (Macintosh; Intel Mac OS X 10_15_7) AppleWebKit/537.36 (KHTML, like Gecko) Chrome/124.0.0.0 Safari/537.36" etag="-Zi4EJkwPxlsCnDqYS6t" version="24.4.4" type="github">
  <diagram name="Page-1" id="5f0bae14-7c28-e335-631c-24af17079c00">
    <mxGraphModel dx="1306" dy="826" grid="1" gridSize="10" guides="1" tooltips="1" connect="1" arrows="1" fold="1" page="1" pageScale="1" pageWidth="1100" pageHeight="850" background="none" math="0" shadow="0">
      <root>
        <mxCell id="0" />
        <mxCell id="1" parent="0" />
        <mxCell id="cJqbKtZXnqDN9QklQEY5-53" style="edgeStyle=orthogonalEdgeStyle;rounded=0;orthogonalLoop=1;jettySize=auto;html=1;" parent="1" source="cJqbKtZXnqDN9QklQEY5-2" edge="1">
          <mxGeometry relative="1" as="geometry">
            <mxPoint x="500" y="189" as="targetPoint" />
          </mxGeometry>
        </mxCell>
        <mxCell id="cJqbKtZXnqDN9QklQEY5-2" value="pre_dress_album" style="swimlane;fontStyle=2;align=center;verticalAlign=top;childLayout=stackLayout;horizontal=1;startSize=26;horizontalStack=0;resizeParent=1;resizeLast=0;collapsible=1;marginBottom=0;rounded=0;shadow=0;strokeWidth=1;" parent="1" vertex="1">
          <mxGeometry x="220" y="120" width="160" height="138" as="geometry" />
        </mxCell>
        <mxCell id="cJqbKtZXnqDN9QklQEY5-51" value="algo_res_pic" style="text;align=left;verticalAlign=top;spacingLeft=4;spacingRight=4;overflow=hidden;rotatable=0;points=[[0,0.5],[1,0.5]];portConstraint=eastwest;" parent="cJqbKtZXnqDN9QklQEY5-2" vertex="1">
          <mxGeometry y="26" width="160" height="26" as="geometry" />
        </mxCell>
        <mxCell id="cJqbKtZXnqDN9QklQEY5-55" value="clothes_param" style="text;align=left;verticalAlign=top;spacingLeft=4;spacingRight=4;overflow=hidden;rotatable=0;points=[[0,0.5],[1,0.5]];portConstraint=eastwest;" parent="cJqbKtZXnqDN9QklQEY5-2" vertex="1">
          <mxGeometry y="52" width="160" height="26" as="geometry" />
        </mxCell>
        <mxCell id="cJqbKtZXnqDN9QklQEY5-56" value="algo_task_id" style="text;align=left;verticalAlign=top;spacingLeft=4;spacingRight=4;overflow=hidden;rotatable=0;points=[[0,0.5],[1,0.5]];portConstraint=eastwest;" parent="cJqbKtZXnqDN9QklQEY5-2" vertex="1">
          <mxGeometry y="78" width="160" height="26" as="geometry" />
        </mxCell>
        <mxCell id="cJqbKtZXnqDN9QklQEY5-37" style="edgeStyle=orthogonalEdgeStyle;rounded=0;orthogonalLoop=1;jettySize=auto;html=1;entryX=0.5;entryY=1;entryDx=0;entryDy=0;" parent="1" source="cJqbKtZXnqDN9QklQEY5-12" target="cJqbKtZXnqDN9QklQEY5-2" edge="1">
          <mxGeometry relative="1" as="geometry" />
        </mxCell>
        <mxCell id="cJqbKtZXnqDN9QklQEY5-12" value="pre_clothes" style="swimlane;fontStyle=2;align=center;verticalAlign=top;childLayout=stackLayout;horizontal=1;startSize=26;horizontalStack=0;resizeParent=1;resizeLast=0;collapsible=1;marginBottom=0;rounded=0;shadow=0;strokeWidth=1;" parent="1" vertex="1">
          <mxGeometry x="90" y="360" width="160" height="138" as="geometry" />
        </mxCell>
        <mxCell id="cJqbKtZXnqDN9QklQEY5-13" value="check_status&#xa;" style="text;align=left;verticalAlign=top;spacingLeft=4;spacingRight=4;overflow=hidden;rotatable=0;points=[[0,0.5],[1,0.5]];portConstraint=eastwest;" parent="cJqbKtZXnqDN9QklQEY5-12" vertex="1">
          <mxGeometry y="26" width="160" height="26" as="geometry" />
        </mxCell>
        <mxCell id="cJqbKtZXnqDN9QklQEY5-15" value="algo_res_listÂ " style="text;align=left;verticalAlign=top;spacingLeft=4;spacingRight=4;overflow=hidden;rotatable=0;points=[[0,0.5],[1,0.5]];portConstraint=eastwest;rounded=0;shadow=0;html=0;" parent="cJqbKtZXnqDN9QklQEY5-12" vertex="1">
          <mxGeometry y="52" width="160" height="26" as="geometry" />
        </mxCell>
        <mxCell id="cJqbKtZXnqDN9QklQEY5-16" value="type" style="text;align=left;verticalAlign=top;spacingLeft=4;spacingRight=4;overflow=hidden;rotatable=0;points=[[0,0.5],[1,0.5]];portConstraint=eastwest;rounded=0;shadow=0;html=0;" parent="cJqbKtZXnqDN9QklQEY5-12" vertex="1">
          <mxGeometry y="78" width="160" height="26" as="geometry" />
        </mxCell>
        <mxCell id="cJqbKtZXnqDN9QklQEY5-17" value="pic_url" style="text;align=left;verticalAlign=top;spacingLeft=4;spacingRight=4;overflow=hidden;rotatable=0;points=[[0,0.5],[1,0.5]];portConstraint=eastwest;" parent="cJqbKtZXnqDN9QklQEY5-12" vertex="1">
          <mxGeometry y="104" width="160" height="26" as="geometry" />
        </mxCell>
        <mxCell id="cJqbKtZXnqDN9QklQEY5-54" style="edgeStyle=orthogonalEdgeStyle;rounded=0;orthogonalLoop=1;jettySize=auto;html=1;entryX=0.5;entryY=1;entryDx=0;entryDy=0;" parent="1" source="cJqbKtZXnqDN9QklQEY5-18" target="cJqbKtZXnqDN9QklQEY5-2" edge="1">
          <mxGeometry relative="1" as="geometry" />
        </mxCell>
        <mxCell id="cJqbKtZXnqDN9QklQEY5-18" value="pre_body_pic" style="swimlane;fontStyle=0;align=center;verticalAlign=top;childLayout=stackLayout;horizontal=1;startSize=26;horizontalStack=0;resizeParent=1;resizeLast=0;collapsible=1;marginBottom=0;rounded=0;shadow=0;strokeWidth=1;" parent="1" vertex="1">
          <mxGeometry x="370" y="360" width="160" height="140" as="geometry" />
        </mxCell>
        <mxCell id="cJqbKtZXnqDN9QklQEY5-19" value="body_pic&#xa;" style="text;align=left;verticalAlign=top;spacingLeft=4;spacingRight=4;overflow=hidden;rotatable=0;points=[[0,0.5],[1,0.5]];portConstraint=eastwest;" parent="cJqbKtZXnqDN9QklQEY5-18" vertex="1">
          <mxGeometry y="26" width="160" height="114" as="geometry" />
        </mxCell>
        <mxCell id="cJqbKtZXnqDN9QklQEY5-21" value="pre_post" style="swimlane;fontStyle=0;align=center;verticalAlign=top;childLayout=stackLayout;horizontal=1;startSize=26;horizontalStack=0;resizeParent=1;resizeLast=0;collapsible=1;marginBottom=0;rounded=0;shadow=0;strokeWidth=1;" parent="1" vertex="1">
          <mxGeometry x="500" y="119" width="140" height="140" as="geometry" />
        </mxCell>
        <mxCell id="cJqbKtZXnqDN9QklQEY5-22" value="algo_res_pic" style="text;align=left;verticalAlign=top;spacingLeft=4;spacingRight=4;overflow=hidden;rotatable=0;points=[[0,0.5],[1,0.5]];portConstraint=eastwest;rounded=0;shadow=0;html=0;" parent="cJqbKtZXnqDN9QklQEY5-21" vertex="1">
          <mxGeometry y="26" width="140" height="26" as="geometry" />
        </mxCell>
        <mxCell id="cJqbKtZXnqDN9QklQEY5-23" value="type" style="text;align=left;verticalAlign=top;spacingLeft=4;spacingRight=4;overflow=hidden;rotatable=0;points=[[0,0.5],[1,0.5]];portConstraint=eastwest;" parent="cJqbKtZXnqDN9QklQEY5-21" vertex="1">
          <mxGeometry y="52" width="140" height="26" as="geometry" />
        </mxCell>
        <mxCell id="cJqbKtZXnqDN9QklQEY5-24" value="state" style="text;align=left;verticalAlign=top;spacingLeft=4;spacingRight=4;overflow=hidden;rotatable=0;points=[[0,0.5],[1,0.5]];portConstraint=eastwest;rounded=0;shadow=0;html=0;" parent="cJqbKtZXnqDN9QklQEY5-21" vertex="1">
          <mxGeometry y="78" width="140" height="26" as="geometry" />
        </mxCell>
        <mxCell id="cJqbKtZXnqDN9QklQEY5-35" style="edgeStyle=orthogonalEdgeStyle;rounded=0;orthogonalLoop=1;jettySize=auto;html=1;entryX=0.5;entryY=1;entryDx=0;entryDy=0;" parent="1" source="cJqbKtZXnqDN9QklQEY5-29" target="cJqbKtZXnqDN9QklQEY5-12" edge="1">
          <mxGeometry relative="1" as="geometry" />
        </mxCell>
        <mxCell id="cJqbKtZXnqDN9QklQEY5-29" value="pre_subTask" style="swimlane;fontStyle=2;align=center;verticalAlign=top;childLayout=stackLayout;horizontal=1;startSize=26;horizontalStack=0;resizeParent=1;resizeLast=0;collapsible=1;marginBottom=0;rounded=0;shadow=0;strokeWidth=1;" parent="1" vertex="1">
          <mxGeometry x="230" y="570" width="140" height="232" as="geometry" />
        </mxCell>
        <mxCell id="cJqbKtZXnqDN9QklQEY5-30" value="dress_album_id" style="text;align=left;verticalAlign=top;spacingLeft=4;spacingRight=4;overflow=hidden;rotatable=0;points=[[0,0.5],[1,0.5]];portConstraint=eastwest;rounded=0;shadow=0;html=0;" parent="cJqbKtZXnqDN9QklQEY5-29" vertex="1">
          <mxGeometry y="26" width="140" height="26" as="geometry" />
        </mxCell>
        <mxCell id="cJqbKtZXnqDN9QklQEY5-31" value="updreee" style="text;align=left;verticalAlign=top;spacingLeft=4;spacingRight=4;overflow=hidden;rotatable=0;points=[[0,0.5],[1,0.5]];portConstraint=eastwest;rounded=0;shadow=0;html=0;" parent="cJqbKtZXnqDN9QklQEY5-29" vertex="1">
          <mxGeometry y="52" width="140" height="32" as="geometry" />
        </mxCell>
        <mxCell id="cJqbKtZXnqDN9QklQEY5-32" value="fulldress" style="text;align=left;verticalAlign=top;spacingLeft=4;spacingRight=4;overflow=hidden;rotatable=0;points=[[0,0.5],[1,0.5]];portConstraint=eastwest;rounded=0;shadow=0;html=0;" parent="cJqbKtZXnqDN9QklQEY5-29" vertex="1">
          <mxGeometry y="84" width="140" height="26" as="geometry" />
        </mxCell>
        <mxCell id="cJqbKtZXnqDN9QklQEY5-33" value="body_pic" style="text;align=left;verticalAlign=top;spacingLeft=4;spacingRight=4;overflow=hidden;rotatable=0;points=[[0,0.5],[1,0.5]];portConstraint=eastwest;" parent="cJqbKtZXnqDN9QklQEY5-29" vertex="1">
          <mxGeometry y="110" width="140" height="26" as="geometry" />
        </mxCell>
        <mxCell id="cJqbKtZXnqDN9QklQEY5-47" value="downdress" style="text;align=left;verticalAlign=top;spacingLeft=4;spacingRight=4;overflow=hidden;rotatable=0;points=[[0,0.5],[1,0.5]];portConstraint=eastwest;rounded=0;shadow=0;html=0;" parent="cJqbKtZXnqDN9QklQEY5-29" vertex="1">
          <mxGeometry y="136" width="140" height="32" as="geometry" />
        </mxCell>
        <mxCell id="cJqbKtZXnqDN9QklQEY5-48" value="taskid" style="text;align=left;verticalAlign=top;spacingLeft=4;spacingRight=4;overflow=hidden;rotatable=0;points=[[0,0.5],[1,0.5]];portConstraint=eastwest;rounded=0;shadow=0;html=0;" parent="cJqbKtZXnqDN9QklQEY5-29" vertex="1">
          <mxGeometry y="168" width="140" height="32" as="geometry" />
        </mxCell>
        <mxCell id="cJqbKtZXnqDN9QklQEY5-50" value="status" style="text;align=left;verticalAlign=top;spacingLeft=4;spacingRight=4;overflow=hidden;rotatable=0;points=[[0,0.5],[1,0.5]];portConstraint=eastwest;rounded=0;shadow=0;html=0;" parent="cJqbKtZXnqDN9QklQEY5-29" vertex="1">
          <mxGeometry y="200" width="140" height="32" as="geometry" />
        </mxCell>
        <mxCell id="cJqbKtZXnqDN9QklQEY5-36" style="edgeStyle=orthogonalEdgeStyle;rounded=0;orthogonalLoop=1;jettySize=auto;html=1;entryX=0.513;entryY=1;entryDx=0;entryDy=0;entryPerimeter=0;" parent="1" source="cJqbKtZXnqDN9QklQEY5-29" target="cJqbKtZXnqDN9QklQEY5-19" edge="1">
          <mxGeometry relative="1" as="geometry" />
        </mxCell>
        <mxCell id="cJqbKtZXnqDN9QklQEY5-41" value="pre_product_task" style="swimlane;fontStyle=2;align=center;verticalAlign=top;childLayout=stackLayout;horizontal=1;startSize=26;horizontalStack=0;resizeParent=1;resizeLast=0;collapsible=1;marginBottom=0;rounded=0;shadow=0;strokeWidth=1;" parent="1" vertex="1">
          <mxGeometry x="520" y="570" width="140" height="150" as="geometry" />
        </mxCell>
        <mxCell id="cJqbKtZXnqDN9QklQEY5-42" value="id" style="text;align=left;verticalAlign=top;spacingLeft=4;spacingRight=4;overflow=hidden;rotatable=0;points=[[0,0.5],[1,0.5]];portConstraint=eastwest;rounded=0;shadow=0;html=0;" parent="cJqbKtZXnqDN9QklQEY5-41" vertex="1">
          <mxGeometry y="26" width="140" height="26" as="geometry" />
        </mxCell>
        <mxCell id="cJqbKtZXnqDN9QklQEY5-44" value="status" style="text;align=left;verticalAlign=top;spacingLeft=4;spacingRight=4;overflow=hidden;rotatable=0;points=[[0,0.5],[1,0.5]];portConstraint=eastwest;rounded=0;shadow=0;html=0;" parent="cJqbKtZXnqDN9QklQEY5-41" vertex="1">
          <mxGeometry y="52" width="140" height="26" as="geometry" />
        </mxCell>
        <mxCell id="cJqbKtZXnqDN9QklQEY5-45" value="status" style="text;align=left;verticalAlign=top;spacingLeft=4;spacingRight=4;overflow=hidden;rotatable=0;points=[[0,0.5],[1,0.5]];portConstraint=eastwest;" parent="cJqbKtZXnqDN9QklQEY5-41" vertex="1">
          <mxGeometry y="78" width="140" height="26" as="geometry" />
        </mxCell>
        <mxCell id="cJqbKtZXnqDN9QklQEY5-46" style="edgeStyle=orthogonalEdgeStyle;rounded=0;orthogonalLoop=1;jettySize=auto;html=1;entryX=1.029;entryY=0.719;entryDx=0;entryDy=0;entryPerimeter=0;" parent="1" source="cJqbKtZXnqDN9QklQEY5-41" target="cJqbKtZXnqDN9QklQEY5-31" edge="1">
          <mxGeometry relative="1" as="geometry" />
        </mxCell>
        <mxCell id="cJqbKtZXnqDN9QklQEY5-49" value="1:n" style="edgeLabel;html=1;align=center;verticalAlign=middle;resizable=0;points=[];" parent="cJqbKtZXnqDN9QklQEY5-46" vertex="1" connectable="0">
          <mxGeometry x="0.1281" y="-2" relative="1" as="geometry">
            <mxPoint as="offset" />
          </mxGeometry>
        </mxCell>
        <mxCell id="cJqbKtZXnqDN9QklQEY5-57" value="" style="rounded=0;whiteSpace=wrap;html=1;" parent="1" vertex="1">
          <mxGeometry x="50" y="850" width="840" height="700" as="geometry" />
        </mxCell>
        <mxCell id="cJqbKtZXnqDN9QklQEY5-87" value="&lt;span style=&quot;font-size: 12px; font-style: italic; text-wrap: nowrap;&quot;&gt;pre_dress_album&lt;/span&gt;" style="swimlane;childLayout=stackLayout;horizontal=1;startSize=50;horizontalStack=0;rounded=1;fontSize=14;fontStyle=0;strokeWidth=2;resizeParent=0;resizeLast=1;shadow=0;dashed=0;align=center;arcSize=4;whiteSpace=wrap;html=1;" parent="1" vertex="1">
          <mxGeometry x="250" y="880" width="160" height="170" as="geometry" />
        </mxCell>
        <mxCell id="cJqbKtZXnqDN9QklQEY5-88" value="&lt;div&gt;id&lt;/div&gt;algo_res_pic&lt;div&gt;clothes_param&lt;br&gt;&lt;/div&gt;&lt;div&gt;body_pic_id&lt;/div&gt;&lt;div&gt;algo_task_id&lt;br&gt;&lt;/div&gt;&lt;div&gt;dress_album_id&lt;/div&gt;&lt;div&gt;status&lt;/div&gt;" style="align=left;strokeColor=none;fillColor=none;spacingLeft=4;fontSize=12;verticalAlign=top;resizable=0;rotatable=0;part=1;html=1;" parent="cJqbKtZXnqDN9QklQEY5-87" vertex="1">
          <mxGeometry y="50" width="160" height="120" as="geometry" />
        </mxCell>
        <mxCell id="cJqbKtZXnqDN9QklQEY5-89" value="&lt;span style=&quot;color: rgb(0, 0, 0); font-family: Helvetica; font-size: 12px; font-style: italic; font-variant-ligatures: normal; font-variant-caps: normal; font-weight: 400; letter-spacing: normal; orphans: 2; text-align: center; text-indent: 0px; text-transform: none; widows: 2; word-spacing: 0px; -webkit-text-stroke-width: 0px; white-space: nowrap; background-color: rgb(251, 251, 251); text-decoration-thickness: initial; text-decoration-style: initial; text-decoration-color: initial; display: inline !important; float: none;&quot;&gt;pre_post&lt;/span&gt;" style="swimlane;childLayout=stackLayout;horizontal=1;startSize=50;horizontalStack=0;rounded=1;fontSize=14;fontStyle=0;strokeWidth=2;resizeParent=0;resizeLast=1;shadow=0;dashed=0;align=center;arcSize=4;whiteSpace=wrap;html=1;" parent="1" vertex="1">
          <mxGeometry x="610" y="875" width="160" height="180" as="geometry" />
        </mxCell>
        <mxCell id="cJqbKtZXnqDN9QklQEY5-90" value="&lt;div&gt;id&lt;/div&gt;&lt;div&gt;algo_res_pic&lt;br&gt;&lt;/div&gt;&lt;div&gt;content&lt;/div&gt;&lt;div&gt;title&lt;/div&gt;&lt;div&gt;clotehes_res&lt;/div&gt;&lt;div&gt;like_num&lt;/div&gt;&lt;div&gt;comment_num&lt;br&gt;&lt;/div&gt;&lt;div&gt;...&lt;/div&gt;" style="align=left;strokeColor=none;fillColor=none;spacingLeft=4;fontSize=12;verticalAlign=top;resizable=0;rotatable=0;part=1;html=1;" parent="cJqbKtZXnqDN9QklQEY5-89" vertex="1">
          <mxGeometry y="50" width="160" height="130" as="geometry" />
        </mxCell>
        <mxCell id="cJqbKtZXnqDN9QklQEY5-104" style="edgeStyle=orthogonalEdgeStyle;rounded=0;orthogonalLoop=1;jettySize=auto;html=1;entryX=0.5;entryY=1;entryDx=0;entryDy=0;" parent="1" source="cJqbKtZXnqDN9QklQEY5-91" target="cJqbKtZXnqDN9QklQEY5-88" edge="1">
          <mxGeometry relative="1" as="geometry" />
        </mxCell>
        <mxCell id="cJqbKtZXnqDN9QklQEY5-91" value="&lt;span style=&quot;font-size: 12px; font-style: italic; text-wrap: nowrap;&quot;&gt;pre_clothes&lt;/span&gt;" style="swimlane;childLayout=stackLayout;horizontal=1;startSize=50;horizontalStack=0;rounded=1;fontSize=14;fontStyle=0;strokeWidth=2;resizeParent=0;resizeLast=1;shadow=0;dashed=0;align=center;arcSize=4;whiteSpace=wrap;html=1;" parent="1" vertex="1">
          <mxGeometry x="100" y="1105" width="160" height="170" as="geometry" />
        </mxCell>
        <mxCell id="cJqbKtZXnqDN9QklQEY5-92" value="&lt;div&gt;id&lt;/div&gt;&lt;div&gt;clothes_url&lt;/div&gt;&lt;div&gt;type&lt;/div&gt;&lt;div&gt;algo_clothes_url&lt;/div&gt;&lt;div&gt;batch_no&lt;/div&gt;&lt;div&gt;status&lt;/div&gt;" style="align=left;strokeColor=none;fillColor=none;spacingLeft=4;fontSize=12;verticalAlign=top;resizable=0;rotatable=0;part=1;html=1;" parent="cJqbKtZXnqDN9QklQEY5-91" vertex="1">
          <mxGeometry y="50" width="160" height="120" as="geometry" />
        </mxCell>
        <mxCell id="cJqbKtZXnqDN9QklQEY5-105" style="edgeStyle=orthogonalEdgeStyle;rounded=0;orthogonalLoop=1;jettySize=auto;html=1;entryX=0.5;entryY=1;entryDx=0;entryDy=0;" parent="1" source="cJqbKtZXnqDN9QklQEY5-93" target="cJqbKtZXnqDN9QklQEY5-88" edge="1">
          <mxGeometry relative="1" as="geometry" />
        </mxCell>
        <mxCell id="cJqbKtZXnqDN9QklQEY5-93" value="&lt;span style=&quot;font-size: 12px; font-style: italic; text-wrap: nowrap;&quot;&gt;pre_body_pic&lt;/span&gt;" style="swimlane;childLayout=stackLayout;horizontal=1;startSize=50;horizontalStack=0;rounded=1;fontSize=14;fontStyle=0;strokeWidth=2;resizeParent=0;resizeLast=1;shadow=0;dashed=0;align=center;arcSize=4;whiteSpace=wrap;html=1;" parent="1" vertex="1">
          <mxGeometry x="380" y="1105" width="160" height="170" as="geometry" />
        </mxCell>
        <mxCell id="cJqbKtZXnqDN9QklQEY5-94" value="&lt;div&gt;id&lt;/div&gt;&lt;div&gt;body_pic&lt;/div&gt;&lt;div&gt;status&lt;/div&gt;" style="align=left;strokeColor=none;fillColor=none;spacingLeft=4;fontSize=12;verticalAlign=top;resizable=0;rotatable=0;part=1;html=1;" parent="cJqbKtZXnqDN9QklQEY5-93" vertex="1">
          <mxGeometry y="50" width="160" height="120" as="geometry" />
        </mxCell>
        <mxCell id="cJqbKtZXnqDN9QklQEY5-101" style="edgeStyle=orthogonalEdgeStyle;rounded=0;orthogonalLoop=1;jettySize=auto;html=1;entryX=0.5;entryY=1;entryDx=0;entryDy=0;" parent="1" source="cJqbKtZXnqDN9QklQEY5-96" target="cJqbKtZXnqDN9QklQEY5-92" edge="1">
          <mxGeometry relative="1" as="geometry" />
        </mxCell>
        <mxCell id="cJqbKtZXnqDN9QklQEY5-103" style="edgeStyle=orthogonalEdgeStyle;rounded=0;orthogonalLoop=1;jettySize=auto;html=1;entryX=0.5;entryY=1;entryDx=0;entryDy=0;" parent="1" source="cJqbKtZXnqDN9QklQEY5-96" target="cJqbKtZXnqDN9QklQEY5-94" edge="1">
          <mxGeometry relative="1" as="geometry" />
        </mxCell>
        <mxCell id="cJqbKtZXnqDN9QklQEY5-96" value="&lt;span style=&quot;font-size: 12px; text-wrap: nowrap;&quot;&gt;&lt;i&gt;pre_sub_task&lt;/i&gt;&lt;/span&gt;" style="swimlane;childLayout=stackLayout;horizontal=1;startSize=50;horizontalStack=0;rounded=1;fontSize=14;fontStyle=0;strokeWidth=2;resizeParent=0;resizeLast=1;shadow=0;dashed=0;align=center;arcSize=4;whiteSpace=wrap;html=1;" parent="1" vertex="1">
          <mxGeometry x="247" y="1330" width="160" height="190" as="geometry" />
        </mxCell>
        <mxCell id="cJqbKtZXnqDN9QklQEY5-97" value="id&lt;div&gt;task_id&lt;/div&gt;&lt;div&gt;full_dress_url&lt;/div&gt;&lt;div&gt;up_dress_url&lt;/div&gt;&lt;div&gt;down_dress_url&lt;/div&gt;&lt;div&gt;body_pic_url&lt;/div&gt;&lt;div&gt;status&lt;/div&gt;&lt;div&gt;batch_no&lt;/div&gt;&lt;div&gt;dress_album_id&lt;/div&gt;" style="align=left;strokeColor=none;fillColor=none;spacingLeft=4;fontSize=12;verticalAlign=top;resizable=0;rotatable=0;part=1;html=1;" parent="cJqbKtZXnqDN9QklQEY5-96" vertex="1">
          <mxGeometry y="50" width="160" height="140" as="geometry" />
        </mxCell>
        <mxCell id="cJqbKtZXnqDN9QklQEY5-98" value="&lt;span style=&quot;font-size: 12px; text-wrap: nowrap;&quot;&gt;&lt;i&gt;pre_product_task&lt;/i&gt;&lt;/span&gt;" style="swimlane;childLayout=stackLayout;horizontal=1;startSize=50;horizontalStack=0;rounded=1;fontSize=14;fontStyle=0;strokeWidth=2;resizeParent=0;resizeLast=1;shadow=0;dashed=0;align=center;arcSize=4;whiteSpace=wrap;html=1;" parent="1" vertex="1">
          <mxGeometry x="560" y="1345" width="160" height="170" as="geometry" />
        </mxCell>
        <mxCell id="cJqbKtZXnqDN9QklQEY5-99" value="id&lt;div&gt;status&lt;/div&gt;" style="align=left;strokeColor=none;fillColor=none;spacingLeft=4;fontSize=12;verticalAlign=top;resizable=0;rotatable=0;part=1;html=1;" parent="cJqbKtZXnqDN9QklQEY5-98" vertex="1">
          <mxGeometry y="50" width="160" height="120" as="geometry" />
        </mxCell>
        <mxCell id="cJqbKtZXnqDN9QklQEY5-100" value="1:N" style="edgeStyle=orthogonalEdgeStyle;rounded=0;orthogonalLoop=1;jettySize=auto;html=1;entryX=1;entryY=0.357;entryDx=0;entryDy=0;entryPerimeter=0;" parent="1" source="cJqbKtZXnqDN9QklQEY5-98" target="cJqbKtZXnqDN9QklQEY5-97" edge="1">
          <mxGeometry relative="1" as="geometry" />
        </mxCell>
        <mxCell id="cJqbKtZXnqDN9QklQEY5-106" style="edgeStyle=orthogonalEdgeStyle;rounded=0;orthogonalLoop=1;jettySize=auto;html=1;" parent="1" source="cJqbKtZXnqDN9QklQEY5-88" target="cJqbKtZXnqDN9QklQEY5-90" edge="1">
          <mxGeometry relative="1" as="geometry" />
        </mxCell>
      </root>
    </mxGraphModel>
  </diagram>
</mxfile>
